<svg width="300" height="300" xmlns="http://www.w3.org/2000/svg" data-name="Livello 1">
 <g>
  <title>Layer 1</title>
  <ellipse stroke="null" ry="140" rx="138.5" id="svg_4" cy="150" cx="150" fill-opacity="0.6" stroke-width="0" fill="#000"/>
  <g stroke="null" id="svg_46">
   <path stroke="null" d="m216.81719,154.71028a61.60715,61.60715 0 0 0 0.47364,-22.26112c-12.41616,14.34455 -47.36409,36.84249 -88.70617,25.27212c0,0 -3.14633,13.5326 -3.7553,16.91575c53.62291,10.08178 88.1987,-17.25406 91.98783,-19.92675z" fill="#fff"  id="svg_24"/>
   <path stroke="null" d="m137.04253,88.73887a123.18046,123.18046 0 0 0 -15.22417,-7.64592a73.10985,73.10985 0 0 0 -16.5436,11.84102c37.9251,9.236 62.28378,42.25553 65.39627,64.27983a64.78731,64.78731 0 0 0 16.40827,-6.15733a108.26077,108.26077 0 0 0 -50.03678,-62.31761z" fill="#fff"  id="svg_25"/>
   <path stroke="null" d="m127.70504,157.28147s2.74035,-17.45705 19.6561,-35.35391l1.2856,-1.15027a125.5825,125.5825 0 0 0 -13.12662,-11.57037a107.1105,107.1105 0 0 0 -17.96452,26.52389a94.15304,94.15304 0 0 0 -10.14945,32.95187s-0.6428,10.48776 -0.6428,16.03613c0,2.06372 0,4.05978 0,6.02201c3.7553,5.00706 11.46888,8.96535 18.16751,11.90868a104.57314,104.57314 0 0 1 -1.52242,-17.93069c0,-3.58614 0.20299,-7.03695 0.50747,-10.14945c1.15027,-5.78519 2.30054,-11.77336 3.78913,-17.28789z" fill="#fff" id="svg_26"/>
   <path stroke="null" d="m93.87355,161.47657a116.245,116.245 0 0 0 11.80719,6.15733a122.90981,122.90981 0 0 1 3.95828,-16.67893c-2.50353,-1.21793 -4.63491,-2.40204 -7.20611,-3.92445c-37.99276,-22.53177 -42.39086,-54.70552 -42.39086,-54.70552a64.00918,64.00918 0 0 1 22.5656,-3.011a128.08603,128.08603 0 0 1 14.64904,-15.29183a101.49447,101.49447 0 0 0 -57.27672,6.42798s2.13138,50.34126 53.89357,81.02642z" fill="#fff"  id="svg_27"/>
   <path stroke="null" d="m260.02,82.71686s-44.58991,-23.37756 -97.06255,6.15733a124.26307,124.26307 0 0 0 -11.80719,7.57825a88.16487,88.16487 0 0 1 12.7883,11.53654c2.30054,-1.52242 4.70258,-3.04483 7.27377,-4.46576c38.53407,-21.71982 68.5426,-9.37132 68.5426,-9.37132a63.33255,63.33255 0 0 1 -8.18722,20.29889a52.23582,52.23582 0 0 1 4.39809,22.49794a101.73129,101.73129 0 0 0 24.05419,-54.23188z" fill="#fff" id="svg_30"/>
   <path stroke="null" d="m190.49629,170.50958a61.67481,61.67481 0 0 1 -16.34061,5.17622c0.23682,2.90951 0.37215,5.92051 0.37215,9.03301c0,44.21776 -25.47511,64.27983 -25.47511,64.27983a68.13662,68.13662 0 0 1 -17.11873,-23.68204a67.66298,67.66298 0 0 1 -20.29889,-6.22499a102.57708,102.57708 0 0 0 37.21464,53.31843s42.28936,-27.36968 42.28936,-87.58973a119.69582,119.69582 0 0 0 -0.6428,-14.31072z" fill="#fff"  id="svg_31"/>

   <path stroke="null" class="cls-2" d="m70.8343,115.7364a83.05631,83.05631 0 0 0 12.55148,14.51371a68.5426,68.5426 0 0 1 96.6904,-50.47659a71.58744,71.58744 0 0 1 20.8402,-5.75135a84.24041,84.24041 0 0 0 -130.08208,41.71423z" fill-opacity="0.6" fill="#fff" id="svg_28"/>
   <path stroke="null" class="cls-2" d="m199.9691,93.81359a68.50877,68.50877 0 0 1 -7.98423,103.01689a69.28689,69.28689 0 0 1 -3.89062,20.70487a84.24041,84.24041 0 0 0 30.78666,-125.68399a93.64557,93.64557 0 0 0 -18.9118,1.96223z" fill-opacity="0.6" fill="#fff" id="svg_29"/>
   <path stroke="null" class="cls-2" d="m164.37838,225.04595a58.46082,58.46082 0 0 0 6.05584,-17.45705a68.6441,68.6441 0 0 1 -86.20264,-49.93528a108.26077,108.26077 0 0 1 -17.42322,-16.20528l0,0.40598a84.24041,84.24041 0 0 0 84.24041,84.24041a87.75889,87.75889 0 0 0 13.32961,-1.04878z" fill-opacity="0.6" fill="#fff" id="svg_32"/>
  </g>
 </g>

</svg>